<svg xmlns="http://www.w3.org/2000/svg" xmlns:xlink="http://www.w3.org/1999/xlink" width="1366" zoomAndPan="magnify" viewBox="0 0 1024.5 137.249994" height="183" preserveAspectRatio="xMidYMid meet" version="1.0"><defs><g/></defs><g fill="#19d226" fill-opacity="1"><g transform="translate(269.733401, 79.171088)"><g><path d="M 4.546875 -62.53125 L 26.90625 -62.53125 C 32.914062 -62.53125 37.816406 -60.925781 41.609375 -57.71875 C 45.398438 -54.507812 47.296875 -49.925781 47.296875 -43.96875 C 47.296875 -39.363281 46.144531 -35.503906 43.84375 -32.390625 C 41.550781 -29.285156 38.429688 -27.101562 34.484375 -25.84375 L 56.015625 0 L 37.890625 0 L 18.796875 -24.703125 L 18.796875 0 L 4.546875 0 Z M 18.796875 -34.796875 L 20.46875 -34.796875 C 21.78125 -34.796875 22.890625 -34.816406 23.796875 -34.859375 C 24.710938 -34.910156 25.75 -35.085938 26.90625 -35.390625 C 28.070312 -35.703125 29.007812 -36.132812 29.71875 -36.6875 C 30.425781 -37.238281 31.03125 -38.046875 31.53125 -39.109375 C 32.039062 -40.171875 32.296875 -41.457031 32.296875 -42.96875 C 32.296875 -44.488281 32.039062 -45.78125 31.53125 -46.84375 C 31.03125 -47.90625 30.425781 -48.710938 29.71875 -49.265625 C 29.007812 -49.828125 28.070312 -50.257812 26.90625 -50.5625 C 25.75 -50.863281 24.710938 -51.035156 23.796875 -51.078125 C 22.890625 -51.128906 21.78125 -51.15625 20.46875 -51.15625 L 18.796875 -51.15625 Z M 18.796875 -34.796875 "/></g></g></g><g fill="#000000" fill-opacity="1"><g transform="translate(318.020315, 79.171088)"><g><path d="M 43.890625 -17.578125 L 15.6875 -17.578125 C 15.6875 -14.847656 16.570312 -12.828125 18.34375 -11.515625 C 20.113281 -10.203125 22.035156 -9.546875 24.109375 -9.546875 C 26.273438 -9.546875 27.988281 -9.835938 29.25 -10.421875 C 30.519531 -11.003906 31.960938 -12.15625 33.578125 -13.875 L 43.28125 -9.015625 C 39.238281 -2.242188 32.519531 1.140625 23.125 1.140625 C 17.257812 1.140625 12.226562 -0.867188 8.03125 -4.890625 C 3.84375 -8.910156 1.75 -13.75 1.75 -19.40625 C 1.75 -25.0625 3.84375 -29.910156 8.03125 -33.953125 C 12.226562 -37.992188 17.257812 -40.015625 23.125 -40.015625 C 29.28125 -40.015625 34.289062 -38.234375 38.15625 -34.671875 C 42.03125 -31.109375 43.96875 -26.019531 43.96875 -19.40625 C 43.96875 -18.5 43.941406 -17.890625 43.890625 -17.578125 Z M 16.0625 -25.015625 L 30.84375 -25.015625 C 30.539062 -27.035156 29.742188 -28.585938 28.453125 -29.671875 C 27.171875 -30.753906 25.519531 -31.296875 23.5 -31.296875 C 21.269531 -31.296875 19.5 -30.710938 18.1875 -29.546875 C 16.875 -28.390625 16.164062 -26.878906 16.0625 -25.015625 Z M 16.0625 -25.015625 "/></g></g></g><g fill="#000000" fill-opacity="1"><g transform="translate(357.735365, 79.171088)"><g><path d="M 4.546875 0 L 4.546875 -38.890625 L 17.96875 -38.890625 L 17.96875 -34.796875 L 18.109375 -34.796875 C 21.597656 -38.273438 25.3125 -40.015625 29.25 -40.015625 C 31.175781 -40.015625 33.085938 -39.757812 34.984375 -39.25 C 36.878906 -38.75 38.695312 -37.96875 40.4375 -36.90625 C 42.175781 -35.851562 43.585938 -34.351562 44.671875 -32.40625 C 45.765625 -30.457031 46.3125 -28.195312 46.3125 -25.625 L 46.3125 0 L 32.890625 0 L 32.890625 -21.984375 C 32.890625 -24.003906 32.242188 -25.769531 30.953125 -27.28125 C 29.671875 -28.800781 27.992188 -29.5625 25.921875 -29.5625 C 23.898438 -29.5625 22.066406 -28.773438 20.421875 -27.203125 C 18.785156 -25.640625 17.96875 -23.898438 17.96875 -21.984375 L 17.96875 0 Z M 4.546875 0 "/></g></g></g><g fill="#000000" fill-opacity="1"><g transform="translate(401.84641, 79.171088)"><g><path d="M 6.828125 -38.890625 L 6.828125 -53.359375 L 20.234375 -53.359375 L 20.234375 -38.890625 L 28.421875 -38.890625 L 28.421875 -28.65625 L 20.234375 -28.65625 L 20.234375 -16.296875 C 20.234375 -12.710938 21.242188 -10.921875 23.265625 -10.921875 C 23.773438 -10.921875 24.304688 -11.019531 24.859375 -11.21875 C 25.410156 -11.414062 25.84375 -11.617188 26.15625 -11.828125 L 26.609375 -12.125 L 29.9375 -1.28125 C 27.0625 0.332031 23.78125 1.140625 20.09375 1.140625 C 17.5625 1.140625 15.382812 0.695312 13.5625 -0.1875 C 11.75 -1.070312 10.375 -2.257812 9.4375 -3.75 C 8.5 -5.238281 7.828125 -6.804688 7.421875 -8.453125 C 7.023438 -10.097656 6.828125 -11.851562 6.828125 -13.71875 L 6.828125 -28.65625 L 1.21875 -28.65625 L 1.21875 -38.890625 Z M 6.828125 -38.890625 "/></g></g></g><g fill="#19d226" fill-opacity="1"><g transform="translate(425.806315, 79.171088)"><g><path d="M 40.328125 -62.53125 L 40.328125 -50.03125 L 18.796875 -50.03125 L 18.796875 -37.59375 L 39.421875 -37.59375 L 39.421875 -25.09375 L 18.796875 -25.09375 L 18.796875 -12.5 L 40.328125 -12.5 L 40.328125 0 L 4.546875 0 L 4.546875 -62.53125 Z M 40.328125 -62.53125 "/></g></g></g><g fill="#000000" fill-opacity="1"><g transform="translate(463.778501, 79.171088)"><g><path d="M 48.96875 -38.890625 L 30.46875 -20.3125 L 50.78125 0 L 33.5 0 L 17.96875 -15.53125 L 17.96875 0 L 4.546875 0 L 4.546875 -65.1875 L 17.96875 -65.1875 L 17.96875 -25.3125 L 31.53125 -38.890625 Z M 48.96875 -38.890625 "/></g></g></g><g fill="#000000" fill-opacity="1"><g transform="translate(506.752643, 79.171088)"><g><path d="M 7.203125 -4.8125 C 3.566406 -8.78125 1.75 -13.644531 1.75 -19.40625 C 1.75 -25.164062 3.566406 -30.039062 7.203125 -34.03125 C 10.835938 -38.019531 15.460938 -40.015625 21.078125 -40.015625 C 26.222656 -40.015625 30.46875 -38.398438 33.8125 -35.171875 L 33.8125 -38.890625 L 47.21875 -38.890625 L 47.21875 0 L 33.953125 0 L 33.953125 -4.390625 L 33.8125 -4.390625 C 30.46875 -0.703125 26.222656 1.140625 21.078125 1.140625 C 15.460938 1.140625 10.835938 -0.84375 7.203125 -4.8125 Z M 18.609375 -26 C 16.867188 -24.28125 16 -22.082031 16 -19.40625 C 16 -16.726562 16.832031 -14.539062 18.5 -12.84375 C 20.164062 -11.15625 22.363281 -10.3125 25.09375 -10.3125 C 27.71875 -10.3125 29.875 -11.171875 31.5625 -12.890625 C 33.257812 -14.609375 34.109375 -16.78125 34.109375 -19.40625 C 34.109375 -22.082031 33.234375 -24.28125 31.484375 -26 C 29.742188 -27.71875 27.613281 -28.578125 25.09375 -28.578125 C 22.507812 -28.578125 20.347656 -27.71875 18.609375 -26 Z M 18.609375 -26 "/></g></g></g><g fill="#000000" fill-opacity="1"><g transform="translate(552.531125, 79.171088)"><g><path d="M 21.453125 -40.015625 C 23.671875 -40.015625 25.863281 -39.757812 28.03125 -39.25 C 30.207031 -38.75 31.828125 -38.25 32.890625 -37.75 L 34.484375 -36.984375 L 30.09375 -28.203125 C 27.0625 -29.816406 24.179688 -30.625 21.453125 -30.625 C 19.929688 -30.625 18.851562 -30.457031 18.21875 -30.125 C 17.59375 -29.800781 17.28125 -29.179688 17.28125 -28.265625 C 17.28125 -28.066406 17.304688 -27.863281 17.359375 -27.65625 C 17.410156 -27.457031 17.507812 -27.269531 17.65625 -27.09375 C 17.8125 -26.914062 17.953125 -26.765625 18.078125 -26.640625 C 18.203125 -26.515625 18.414062 -26.375 18.71875 -26.21875 C 19.019531 -26.070312 19.257812 -25.957031 19.4375 -25.875 C 19.613281 -25.800781 19.90625 -25.6875 20.3125 -25.53125 C 20.71875 -25.382812 21.019531 -25.273438 21.21875 -25.203125 C 21.425781 -25.128906 21.769531 -25.015625 22.25 -24.859375 C 22.726562 -24.710938 23.09375 -24.613281 23.34375 -24.5625 C 24.90625 -24.101562 26.269531 -23.59375 27.4375 -23.03125 C 28.601562 -22.476562 29.828125 -21.722656 31.109375 -20.765625 C 32.398438 -19.804688 33.398438 -18.59375 34.109375 -17.125 C 34.816406 -15.664062 35.171875 -14 35.171875 -12.125 C 35.171875 -3.28125 29.03125 1.140625 16.75 1.140625 C 13.96875 1.140625 11.328125 0.710938 8.828125 -0.140625 C 6.328125 -1.003906 4.519531 -1.867188 3.40625 -2.734375 L 1.75 -4.09375 L 7.203125 -13.265625 C 7.609375 -12.910156 8.140625 -12.492188 8.796875 -12.015625 C 9.453125 -11.535156 10.640625 -10.878906 12.359375 -10.046875 C 14.078125 -9.210938 15.566406 -8.796875 16.828125 -8.796875 C 19.609375 -8.796875 21 -9.726562 21 -11.59375 C 21 -12.457031 20.644531 -13.128906 19.9375 -13.609375 C 19.226562 -14.085938 18.023438 -14.628906 16.328125 -15.234375 C 14.640625 -15.835938 13.316406 -16.394531 12.359375 -16.90625 C 9.929688 -18.164062 8.007812 -19.59375 6.59375 -21.1875 C 5.175781 -22.78125 4.46875 -24.890625 4.46875 -27.515625 C 4.46875 -31.453125 5.992188 -34.519531 9.046875 -36.71875 C 12.109375 -38.914062 16.242188 -40.015625 21.453125 -40.015625 Z M 21.453125 -40.015625 "/></g></g></g><g fill="#000000" fill-opacity="1"><g transform="translate(583.833156, 79.171088)"><g><path d="M 5.828125 -60.5625 C 7.398438 -62.125 9.269531 -62.90625 11.4375 -62.90625 C 13.613281 -62.90625 15.484375 -62.125 17.046875 -60.5625 C 18.617188 -59 19.40625 -57.128906 19.40625 -54.953125 C 19.40625 -52.773438 18.617188 -50.90625 17.046875 -49.34375 C 15.484375 -47.78125 13.613281 -47 11.4375 -47 C 9.269531 -47 7.398438 -47.78125 5.828125 -49.34375 C 4.265625 -50.90625 3.484375 -52.773438 3.484375 -54.953125 C 3.484375 -57.128906 4.265625 -59 5.828125 -60.5625 Z M 4.546875 -38.890625 L 4.546875 0 L 17.96875 0 L 17.96875 -38.890625 Z M 4.546875 -38.890625 "/></g></g></g></svg>